<mxfile host="Electron" modified="2024-01-17T08:32:28.056Z" agent="Mozilla/5.0 (Windows NT 10.0; Win64; x64) AppleWebKit/537.36 (KHTML, like Gecko) draw.io/22.0.3 Chrome/114.0.5735.289 Electron/25.8.4 Safari/537.36" etag="eq-79mlOZMMoQ_SMaKyL" version="22.0.3" type="device">
  <diagram name="PÃ¡gina-1" id="D1MhTUDBADEoJPAcohuk">
    <mxGraphModel dx="712" dy="827" grid="1" gridSize="10" guides="1" tooltips="1" connect="1" arrows="1" fold="1" page="1" pageScale="1" pageWidth="827" pageHeight="1169" math="0" shadow="0">
      <root>
        <mxCell id="0" />
        <mxCell id="1" parent="0" />
        <mxCell id="2k7GKnNA_OKWVHpIjeR_-14" style="edgeStyle=orthogonalEdgeStyle;rounded=0;orthogonalLoop=1;jettySize=auto;html=1;entryX=0;entryY=0.5;entryDx=0;entryDy=0;" edge="1" parent="1" source="2k7GKnNA_OKWVHpIjeR_-1" target="2k7GKnNA_OKWVHpIjeR_-8">
          <mxGeometry relative="1" as="geometry" />
        </mxCell>
        <mxCell id="2k7GKnNA_OKWVHpIjeR_-15" style="edgeStyle=orthogonalEdgeStyle;rounded=0;orthogonalLoop=1;jettySize=auto;html=1;entryX=0;entryY=0.5;entryDx=0;entryDy=0;" edge="1" parent="1" source="2k7GKnNA_OKWVHpIjeR_-1" target="2k7GKnNA_OKWVHpIjeR_-9">
          <mxGeometry relative="1" as="geometry" />
        </mxCell>
        <mxCell id="2k7GKnNA_OKWVHpIjeR_-16" style="edgeStyle=orthogonalEdgeStyle;rounded=0;orthogonalLoop=1;jettySize=auto;html=1;entryX=0;entryY=0.5;entryDx=0;entryDy=0;" edge="1" parent="1" source="2k7GKnNA_OKWVHpIjeR_-1" target="2k7GKnNA_OKWVHpIjeR_-10">
          <mxGeometry relative="1" as="geometry" />
        </mxCell>
        <mxCell id="2k7GKnNA_OKWVHpIjeR_-1" value="lector" style="shape=umlActor;verticalLabelPosition=bottom;verticalAlign=top;html=1;outlineConnect=0;" vertex="1" parent="1">
          <mxGeometry x="190" y="240" width="30" height="60" as="geometry" />
        </mxCell>
        <mxCell id="2k7GKnNA_OKWVHpIjeR_-18" style="edgeStyle=orthogonalEdgeStyle;rounded=0;orthogonalLoop=1;jettySize=auto;html=1;entryX=0;entryY=0.5;entryDx=0;entryDy=0;" edge="1" parent="1" source="2k7GKnNA_OKWVHpIjeR_-4" target="2k7GKnNA_OKWVHpIjeR_-11">
          <mxGeometry relative="1" as="geometry" />
        </mxCell>
        <mxCell id="2k7GKnNA_OKWVHpIjeR_-20" style="edgeStyle=orthogonalEdgeStyle;rounded=0;orthogonalLoop=1;jettySize=auto;html=1;entryX=0;entryY=0.5;entryDx=0;entryDy=0;" edge="1" parent="1" source="2k7GKnNA_OKWVHpIjeR_-4" target="2k7GKnNA_OKWVHpIjeR_-12">
          <mxGeometry relative="1" as="geometry" />
        </mxCell>
        <mxCell id="2k7GKnNA_OKWVHpIjeR_-4" value="administrativo" style="shape=umlActor;verticalLabelPosition=bottom;verticalAlign=top;html=1;outlineConnect=0;" vertex="1" parent="1">
          <mxGeometry x="200" y="510" width="30" height="60" as="geometry" />
        </mxCell>
        <mxCell id="2k7GKnNA_OKWVHpIjeR_-22" style="edgeStyle=orthogonalEdgeStyle;rounded=0;orthogonalLoop=1;jettySize=auto;html=1;entryX=1;entryY=0.5;entryDx=0;entryDy=0;" edge="1" parent="1" source="2k7GKnNA_OKWVHpIjeR_-5" target="2k7GKnNA_OKWVHpIjeR_-10">
          <mxGeometry relative="1" as="geometry" />
        </mxCell>
        <mxCell id="2k7GKnNA_OKWVHpIjeR_-23" style="edgeStyle=orthogonalEdgeStyle;rounded=0;orthogonalLoop=1;jettySize=auto;html=1;entryX=1;entryY=0.5;entryDx=0;entryDy=0;" edge="1" parent="1" source="2k7GKnNA_OKWVHpIjeR_-5" target="2k7GKnNA_OKWVHpIjeR_-11">
          <mxGeometry relative="1" as="geometry" />
        </mxCell>
        <mxCell id="2k7GKnNA_OKWVHpIjeR_-5" value="bibliotecario" style="shape=umlActor;verticalLabelPosition=bottom;verticalAlign=top;html=1;outlineConnect=0;" vertex="1" parent="1">
          <mxGeometry x="880" y="410" width="30" height="60" as="geometry" />
        </mxCell>
        <mxCell id="2k7GKnNA_OKWVHpIjeR_-8" value="buscar libros" style="ellipse;whiteSpace=wrap;html=1;" vertex="1" parent="1">
          <mxGeometry x="530" y="120" width="120" height="80" as="geometry" />
        </mxCell>
        <mxCell id="2k7GKnNA_OKWVHpIjeR_-9" value="reservar libros" style="ellipse;whiteSpace=wrap;html=1;" vertex="1" parent="1">
          <mxGeometry x="530" y="230" width="120" height="80" as="geometry" />
        </mxCell>
        <mxCell id="2k7GKnNA_OKWVHpIjeR_-10" value="anular reservas" style="ellipse;whiteSpace=wrap;html=1;" vertex="1" parent="1">
          <mxGeometry x="530" y="340" width="120" height="80" as="geometry" />
        </mxCell>
        <mxCell id="2k7GKnNA_OKWVHpIjeR_-11" value="insertar libros" style="ellipse;whiteSpace=wrap;html=1;" vertex="1" parent="1">
          <mxGeometry x="530" y="450" width="120" height="80" as="geometry" />
        </mxCell>
        <mxCell id="2k7GKnNA_OKWVHpIjeR_-12" value="dar de baja libros" style="ellipse;whiteSpace=wrap;html=1;" vertex="1" parent="1">
          <mxGeometry x="530" y="560" width="120" height="80" as="geometry" />
        </mxCell>
      </root>
    </mxGraphModel>
  </diagram>
</mxfile>
